<?xml version="1.0" standalone="no"?>
<!DOCTYPE svg PUBLIC "-//W3C//DTD SVG 20010904//EN"
 "http://www.w3.org/TR/2001/REC-SVG-20010904/DTD/svg10.dtd">
<svg version="1.0" xmlns="http://www.w3.org/2000/svg"
 width="784.000000pt" height="784.000000pt" viewBox="0 0 784.000000 784.000000"
 preserveAspectRatio="xMidYMid meet">
<metadata>
Created by potrace 1.14, written by Peter Selinger 2001-2017
</metadata>
<g transform="translate(0.000000,784.000000) scale(0.100000,-0.100000)"
fill="#000000" stroke="none">
<path d="M0 3920 l0 -3840 3843 2 c3399 3 3842 5 3839 18 -2 8 -3 22 -3 30 2
152 2 201 -3 209 -4 5 -2 12 3 16 6 3 7 15 2 28 -5 13 -5 30 -1 38 5 8 5 21 1
28 -5 7 -5 28 -1 47 4 19 4 36 0 39 -5 3 -5 19 0 35 5 17 6 30 2 30 -4 0 -7
18 -7 40 0 22 3 40 6 40 4 0 3 16 -1 35 -4 19 -5 35 -1 35 7 0 5 206 -3 226
-3 7 -1 16 4 19 5 3 6 15 1 28 -5 13 -5 30 -1 38 5 8 5 21 1 28 -5 7 -5 28 -1
47 4 19 4 36 0 39 -5 3 -5 19 0 35 5 17 6 30 2 30 -4 0 -7 18 -7 40 0 22 3 40
6 40 4 0 3 16 -1 35 -4 19 -5 35 -1 35 7 0 5 206 -3 226 -3 7 -1 16 4 19 5 3
6 15 1 28 -5 13 -5 30 -1 38 5 8 5 21 1 28 -5 7 -5 28 -1 47 4 19 4 36 0 39
-5 3 -5 19 0 35 5 17 6 30 2 30 -4 0 -7 18 -7 40 0 22 3 40 6 40 4 0 3 16 -1
35 -4 19 -5 35 -1 35 7 0 5 206 -3 226 -3 7 -1 16 4 19 5 3 6 15 1 28 -5 13
-5 30 -1 38 5 8 5 21 1 28 -5 7 -5 28 -1 47 4 19 4 36 0 39 -5 3 -5 19 0 35 5
17 6 30 2 30 -4 0 -7 18 -7 40 0 22 3 40 6 40 4 0 3 16 -1 35 -4 19 -5 35 -1
35 7 0 6 109 -2 117 -3 3 -2 16 3 29 6 14 6 26 0 29 -6 3 -6 15 0 30 6 15 6
27 0 30 -6 3 -6 15 0 30 6 15 6 27 0 30 -6 3 -6 15 0 30 6 15 6 27 0 30 -6 3
-6 15 0 30 6 15 6 27 0 30 -6 3 -6 15 0 30 6 15 6 27 0 30 -6 3 -6 15 0 30 6
15 6 27 0 30 -6 3 -6 15 0 30 6 15 6 27 0 30 -6 3 -6 15 0 30 6 15 6 27 0 30
-6 3 -6 15 0 30 6 15 6 27 0 30 -6 3 -6 15 0 30 6 15 6 27 0 30 -6 3 -6 15 0
30 6 15 6 27 0 30 -6 3 -6 15 0 30 6 15 6 27 0 30 -6 3 -6 15 0 30 6 15 6 27
0 30 -6 3 -6 15 0 30 6 15 6 27 0 30 -6 3 -6 15 0 30 6 15 6 27 0 30 -6 3 -6
15 0 30 6 15 6 27 0 30 -6 3 -6 15 0 30 6 15 6 27 0 30 -6 3 -6 15 0 30 6 15
6 27 0 30 -6 3 -6 15 0 30 6 15 6 27 0 30 -6 3 -6 15 0 30 6 15 6 27 0 30 -6
3 -6 15 0 30 6 15 6 27 0 30 -6 3 -6 15 0 30 6 15 6 27 0 30 -6 3 -6 15 0 30
6 15 6 27 0 30 -6 3 -6 15 0 30 6 15 6 27 0 30 -6 3 -6 15 0 30 6 15 6 27 0
30 -6 3 -6 15 0 30 6 15 6 27 0 30 -6 3 -6 15 0 30 6 15 6 27 0 30 -6 3 -6 15
0 30 6 15 6 27 0 30 -6 3 -6 15 0 30 6 15 6 27 0 30 -6 3 -6 15 0 30 6 15 6
27 0 30 -6 3 -6 15 0 30 6 15 6 27 0 30 -6 3 -6 15 0 30 6 15 6 27 0 30 -6 3
-6 15 0 30 6 15 6 27 0 30 -6 3 -6 15 0 30 6 15 6 27 0 30 -6 3 -6 15 0 30 6
15 6 27 0 30 -6 3 -6 15 0 30 6 15 6 27 0 30 -6 3 -6 15 0 30 6 15 6 27 0 30
-6 3 -6 15 0 30 6 15 6 27 0 30 -6 3 -6 15 0 30 6 15 6 27 0 30 -6 3 -6 15 0
30 6 15 6 27 0 30 -6 3 -6 15 0 30 6 15 6 27 0 30 -5 3 -6 15 -1 28 5 12 5 32
0 44 -4 12 -4 25 1 28 5 3 5 18 0 35 -5 17 -6 30 -2 30 9 0 7 2209 -2 2217 -3
3 -2 11 3 17 5 6 5 21 0 34 l-8 22 -3836 0 -3835 0 0 -3840z"/>
</g>
</svg>
